<?xml version="1.0" encoding="UTF-8"?>
<svg width="18px" height="18px" viewBox="0 0 18 18" version="1.1" xmlns="http://www.w3.org/2000/svg" xmlns:xlink="http://www.w3.org/1999/xlink">
    <!-- Generator: Sketch 54.1 (76490) - https://sketchapp.com -->
    <title>consultant-icon</title>
    <desc>Created with Sketch.</desc>
    <g id="Page-1" stroke="none" stroke-width="1" fill="none" fill-rule="evenodd">
        <g id="step-2---Brief" transform="translate(-127.000000, -656.000000)" fill="#B2B2B2" fill-rule="nonzero">
            <g id="form" transform="translate(52.000000, 255.000000)">
                <g id="update-1" transform="translate(41.000000, 0.000000)">
                    <g id="consultant-icon" transform="translate(34.000000, 401.000000)">
                        <circle id="Oval" cx="4.78125" cy="11.671875" r="2.109375"></circle>
                        <path d="M1.08984375,17.4726562 C1.08984375,17.7641367 1.32570703,18 1.6171875,18 L7.9453125,18 C8.23679297,18 8.47265625,17.7641367 8.47265625,17.4726562 C8.47265625,15.4374258 6.81648047,13.78125 4.78125,13.78125 C2.74601953,13.78125 1.08984375,15.4374258 1.08984375,17.4726562 Z" id="Path"></path>
                        <circle id="Oval" cx="13.21875" cy="11.671875" r="2.109375"></circle>
                        <path d="M9.52734375,17.4726562 C9.52734375,17.7641367 9.76320703,18 10.0546875,18 L16.3828125,18 C16.674293,18 16.9101562,17.7641367 16.9101562,17.4726562 C16.9101562,15.4374258 15.2539805,13.78125 13.21875,13.78125 C11.1835195,13.78125 9.52734375,15.4374258 9.52734375,17.4726562 Z" id="Path"></path>
                        <path d="M16.4179688,0 L1.58203125,0 C0.709664063,0 0,0.709664062 0,1.58203125 L0,5.80078125 C0,6.67314844 0.709664063,7.3828125 1.58203125,7.3828125 L3.47305078,7.3828125 L4.37322656,8.28298828 C4.57920703,8.48896875 4.91294531,8.48896875 5.11892578,8.28298828 L6.01913672,7.3828125 L11.9808633,7.3828125 L12.8810391,8.28298828 C13.0870195,8.48896875 13.4207227,8.48900391 13.6267383,8.28298828 L14.5269492,7.3828125 L16.4179688,7.3828125 C17.2903359,7.3828125 18,6.67314844 18,5.80078125 L18,1.58203125 C18,0.709664062 17.2903359,0 16.4179688,0 Z M6.85546875,5.2734375 L2.63671875,5.2734375 C2.34523828,5.2734375 2.109375,5.03757422 2.109375,4.74609375 C2.109375,4.45461328 2.34523828,4.21875 2.63671875,4.21875 L6.85546875,4.21875 C7.14694922,4.21875 7.3828125,4.45461328 7.3828125,4.74609375 C7.3828125,5.03757422 7.14694922,5.2734375 6.85546875,5.2734375 Z M6.85546875,3.1640625 L2.63671875,3.1640625 C2.34523828,3.1640625 2.109375,2.92819922 2.109375,2.63671875 C2.109375,2.34523828 2.34523828,2.109375 2.63671875,2.109375 L6.85546875,2.109375 C7.14694922,2.109375 7.3828125,2.34523828 7.3828125,2.63671875 C7.3828125,2.92819922 7.14694922,3.1640625 6.85546875,3.1640625 Z M15.3632812,5.2734375 L11.1445312,5.2734375 C10.8530508,5.2734375 10.6171875,5.03757422 10.6171875,4.74609375 C10.6171875,4.45461328 10.8530508,4.21875 11.1445312,4.21875 L15.3632812,4.21875 C15.6547617,4.21875 15.890625,4.45461328 15.890625,4.74609375 C15.890625,5.03757422 15.6547617,5.2734375 15.3632812,5.2734375 Z M15.3632812,3.1640625 L11.1445312,3.1640625 C10.8530508,3.1640625 10.6171875,2.92819922 10.6171875,2.63671875 C10.6171875,2.34523828 10.8530508,2.109375 11.1445312,2.109375 L15.3632812,2.109375 C15.6547617,2.109375 15.890625,2.34523828 15.890625,2.63671875 C15.890625,2.92819922 15.6547617,3.1640625 15.3632812,3.1640625 Z" id="Shape"></path>
                    </g>
                </g>
            </g>
        </g>
    </g>
</svg>