<?xml version="1.0" encoding="UTF-8"?>
<svg width="18px" height="17px" viewBox="0 0 18 17" version="1.1" xmlns="http://www.w3.org/2000/svg" xmlns:xlink="http://www.w3.org/1999/xlink">
    <!-- Generator: Sketch 54.1 (76490) - https://sketchapp.com -->
    <title>pricing-icon</title>
    <desc>Created with Sketch.</desc>
    <g id="Page-1" stroke="none" stroke-width="1" fill="none" fill-rule="evenodd">
        <g id="step-2---Brief" transform="translate(-127.000000, -517.000000)" fill="#B2B2B2" fill-rule="nonzero">
            <g id="form" transform="translate(52.000000, 255.000000)">
                <g id="update-1" transform="translate(63.000000, 0.000000)">
                    <g id="pricing-icon" transform="translate(12.000000, 262.000000)">
                        <path d="M14.0202288,0.00922654462 L8.50143707,0.00922654462 C8.15214645,0.00922654462 7.81669565,0.148283753 7.56955606,0.395423341 L0.386032037,7.57762929 C-0.128677346,8.09233867 -0.128677346,8.92668192 0.386032037,9.44205034 L5.9048238,14.9608421 C6.41953318,15.4755515 7.25387643,15.4755515 7.76858581,14.9608421 L14.9521098,7.77863616 C15.1992494,7.53083753 15.3383066,7.19538673 15.3383066,6.84543707 L15.3383066,1.32730435 C15.3383066,0.599066362 14.7484668,0.00922654462 14.0202288,0.00922654462 Z M11.7135927,4.62249886 C11.1679085,4.62249886 10.7250343,4.17962471 10.7250343,3.6339405 C10.7250343,3.08825629 11.1679085,2.64538215 11.7135927,2.64538215 C12.2592769,2.64538215 12.702151,3.08825629 12.702151,3.6339405 C12.702151,4.17962471 12.2592769,4.62249886 11.7135927,4.62249886 Z" id="Shape"></path>
                        <path d="M16.6563844,1.32730435 L16.6557254,7.46229748 C16.6557254,7.76611442 16.5351213,8.05806865 16.3196156,8.27291533 L9.02010069,15.5724302 L9.1321373,15.6844668 C9.64684668,16.1991762 10.4811899,16.1991762 10.9958993,15.6844668 L17.5876064,9.0940778 C17.835405,8.84693822 17.9744622,8.51148741 17.9744622,8.1621968 L17.9744622,2.64538215 C17.9744622,1.91714416 17.3846224,1.32730435 16.6563844,1.32730435 Z" id="Path"></path>
                    </g>
                </g>
            </g>
        </g>
    </g>
</svg>