<?xml version="1.0" encoding="UTF-8"?>
<svg width="18px" height="17px" viewBox="0 0 18 17" version="1.1" xmlns="http://www.w3.org/2000/svg" xmlns:xlink="http://www.w3.org/1999/xlink">
    <!-- Generator: Sketch 54.1 (76490) - https://sketchapp.com -->
    <title>project-media-icon</title>
    <desc>Created with Sketch.</desc>
    <g id="Page-1" stroke="none" stroke-width="1" fill="none" fill-rule="evenodd">
        <g id="step-2---Brief" transform="translate(-126.000000, -370.000000)" fill="#B2B2B2" fill-rule="nonzero">
            <g id="form" transform="translate(52.000000, 255.000000)">
                <g id="update-1" transform="translate(63.000000, 0.000000)">
                    <g id="project-media-icon" transform="translate(11.000000, 115.000000)">
                        <path d="M4.68704222,13.142395 C3.48637391,13.142395 2.41836546,12.3736267 2.03054808,11.229126 L2.00431825,11.1428833 C1.91285705,10.839798 1.87454222,10.5849152 1.87454222,10.329895 L1.87454222,5.21630859 L0.0550689609,11.2898254 C-0.178939828,12.1831513 0.354309082,13.1092987 1.24900819,13.3560791 L12.8463135,16.4619141 C12.9910584,16.4994049 13.1358032,16.517395 13.2783508,16.517395 C14.0252838,16.517395 14.7078095,16.0216369 14.8991089,15.2910461 L15.5747681,13.142395 L4.68704222,13.142395 Z" id="Path"></path>
                        <path d="M6.749588,5.26739502 C7.57685851,5.26739502 8.24949647,4.59461974 8.24949647,3.76734923 C8.24949647,2.94007873 7.57685851,2.26730348 6.749588,2.26730348 C5.9223175,2.26730348 5.24954222,2.94007873 5.24954222,3.76734923 C5.24954222,4.59461974 5.9223175,5.26739502 6.749588,5.26739502 Z" id="Path"></path>
                        <path d="M16.1244965,0.0173034844 L4.87449647,0.0173034844 C3.84109495,0.0173034844 2.99954222,0.858856219 2.99954222,1.89239502 L2.99954222,10.1423035 C2.99954222,11.1758423 3.84109495,12.017395 4.87449647,12.017395 L16.1244965,12.017395 C17.1580353,12.017395 17.999588,11.1758423 17.999588,10.1423035 L17.999588,1.89239502 C17.999588,0.858856219 17.1580353,0.0173034844 16.1244965,0.0173034844 Z M4.87449647,1.51734923 L16.1244965,1.51734923 C16.3315888,1.51734923 16.4995422,1.68530273 16.4995422,1.89239502 L16.4995422,7.2166443 L14.1303406,4.45207215 C13.8790283,4.15736388 13.5152435,3.99984743 13.1245422,3.99092101 C12.7360382,3.99311828 12.3715668,4.16560363 12.1225891,4.46415711 L9.33700563,7.8075714 L8.42953493,6.90229796 C7.91661073,6.3893738 7.08178711,6.3893738 6.56954958,6.90229796 L4.499588,8.97157287 L4.499588,1.89239502 C4.499588,1.68530273 4.6675415,1.51734923 4.87449647,1.51734923 Z" id="Shape"></path>
                    </g>
                </g>
            </g>
        </g>
    </g>
</svg>