<?xml version="1.0" encoding="UTF-8"?>
<svg xmlns="http://www.w3.org/2000/svg" xmlns:xlink="http://www.w3.org/1999/xlink" width="18px" height="18px" viewBox="0 0 18 18" version="1.1">
<g id="surface1">
<path style=" stroke:none;fill-rule:evenodd;fill:rgb(10.196078%,59.215686%,94.509804%);fill-opacity:1;" d="M 8.707031 0.195312 L 0.921875 5.394531 C 0.679688 5.558594 0.613281 5.886719 0.777344 6.128906 C 0.875 6.277344 1.039062 6.363281 1.214844 6.363281 L 16.785156 6.363281 C 17.074219 6.363281 17.3125 6.128906 17.3125 5.835938 C 17.3125 5.65625 17.222656 5.492188 17.078125 5.394531 L 9.292969 0.195312 C 9.117188 0.078125 8.882812 0.078125 8.707031 0.195312 Z M 8.707031 0.195312 "/>
<path style=" stroke:none;fill-rule:evenodd;fill:rgb(100%,100%,100%);fill-opacity:1;" d="M 8.46875 3.175781 L 9.53125 3.175781 C 9.820312 3.175781 10.058594 3.414062 10.058594 3.707031 C 10.058594 4 9.820312 4.234375 9.53125 4.234375 L 8.46875 4.234375 C 8.179688 4.234375 7.941406 4 7.941406 3.707031 C 7.941406 3.414062 8.179688 3.175781 8.46875 3.175781 Z M 8.46875 3.175781 "/>
<path style="fill:none;stroke-width:1;stroke-linecap:round;stroke-linejoin:miter;stroke:rgb(10.196078%,59.215686%,94.509804%);stroke-opacity:1;stroke-miterlimit:4;" d="M 2.499566 7.500217 L 15.57053 7.500217 " transform="matrix(1.058824,0,0,1.058824,-0.529412,0)"/>
<path style="fill:none;stroke-width:2;stroke-linecap:round;stroke-linejoin:miter;stroke:rgb(10.196078%,59.215686%,94.509804%);stroke-opacity:1;stroke-miterlimit:4;" d="M 2.499566 16.000217 L 15.57053 16.000217 " transform="matrix(1.058824,0,0,1.058824,-0.529412,0)"/>
<path style="fill:none;stroke-width:2;stroke-linecap:square;stroke-linejoin:miter;stroke:rgb(10.196078%,59.215686%,94.509804%);stroke-opacity:1;stroke-miterlimit:4;" d="M 4.499132 10.001519 L 4.499132 13.000868 M 7.498481 10.001519 L 7.498481 13.000868 M 10.501519 10.001519 L 10.501519 13.000868 M 13.500868 10.001519 L 13.500868 13.000868 " transform="matrix(1.058824,0,0,1.058824,-0.529412,0)"/>
</g>
</svg>
