<?xml version="1.0" encoding="UTF-8"?>
<svg xmlns="http://www.w3.org/2000/svg" xmlns:xlink="http://www.w3.org/1999/xlink" width="18px" height="18px" viewBox="0 0 18 18" version="1.1">
<g id="surface1">
<path style=" stroke:none;fill-rule:evenodd;fill:rgb(10.196078%,59.215686%,94.509804%);fill-opacity:1;" d="M 3.5 0 L 14.5 0 C 15.605469 0 16.5 0.894531 16.5 2 L 16.5 16 C 16.5 17.105469 15.605469 18 14.5 18 L 3.5 18 C 2.394531 18 1.5 17.105469 1.5 16 L 1.5 2 C 1.5 0.894531 2.394531 0 3.5 0 Z M 3.5 0 "/>
<path style="fill:none;stroke-width:1;stroke-linecap:round;stroke-linejoin:miter;stroke:rgb(100%,100%,100%);stroke-opacity:1;stroke-miterlimit:4;" d="M 3.5 4.5 L 7.621094 4.5 M 3.5 7.5 L 11.398438 7.5 M 3.5 10.5 L 11.398438 10.5 M 3.5 13.5 L 10.109375 13.5 " transform="matrix(1,0,0,1,1.5,0)"/>
</g>
</svg>
