<?xml version="1.0" encoding="UTF-8"?>
<svg xmlns="http://www.w3.org/2000/svg" xmlns:xlink="http://www.w3.org/1999/xlink" width="18px" height="18px" viewBox="0 0 18 18" version="1.1">
<g id="surface1">
<path style=" stroke:none;fill-rule:nonzero;fill:rgb(10.196078%,59.215686%,94.509804%);fill-opacity:1;" d="M 3.5 0 L 14.5 0 C 15.605469 0 16.5 0.894531 16.5 2 L 16.5 16 C 16.5 17.105469 15.605469 18 14.5 18 L 3.5 18 C 2.394531 18 1.5 17.105469 1.5 16 L 1.5 2 C 1.5 0.894531 2.394531 0 3.5 0 Z M 3.5 0 "/>
<path style=" stroke:none;fill-rule:nonzero;fill:rgb(100%,100%,100%);fill-opacity:1;" d="M 3.5 2 L 14.5 2 L 14.5 7 L 3.5 7 Z M 3.5 2 "/>
<path style="fill:none;stroke-width:1;stroke-linecap:butt;stroke-linejoin:miter;stroke:rgb(13.72549%,54.509804%,87.058824%);stroke-opacity:1;stroke-miterlimit:4;" d="M 0.5 0.5 L 10.5 0.5 L 10.5 4.5 L 0.5 4.5 Z M 0.5 0.5 " transform="matrix(1,0,0,1,3.5,2)"/>
<path style=" stroke:none;fill-rule:nonzero;fill:rgb(100%,100%,100%);fill-opacity:1;" d="M 3.5 8 L 5.5 8 L 5.5 10 L 3.5 10 Z M 3.5 8 "/>
<path style=" stroke:none;fill-rule:nonzero;fill:rgb(100%,100%,100%);fill-opacity:1;" d="M 6.5 8 L 8.5 8 L 8.5 10 L 6.5 10 Z M 6.5 8 "/>
<path style=" stroke:none;fill-rule:nonzero;fill:rgb(100%,100%,100%);fill-opacity:1;" d="M 12.5 8 L 14.5 8 L 14.5 10 L 12.5 10 Z M 12.5 8 "/>
<path style=" stroke:none;fill-rule:nonzero;fill:rgb(100%,100%,100%);fill-opacity:1;" d="M 9.5 8 L 11.5 8 L 11.5 10 L 9.5 10 Z M 9.5 8 "/>
<path style=" stroke:none;fill-rule:nonzero;fill:rgb(100%,100%,100%);fill-opacity:1;" d="M 3.5 11 L 5.5 11 L 5.5 13 L 3.5 13 Z M 3.5 11 "/>
<path style=" stroke:none;fill-rule:nonzero;fill:rgb(100%,100%,100%);fill-opacity:1;" d="M 6.5 11 L 8.5 11 L 8.5 13 L 6.5 13 Z M 6.5 11 "/>
<path style=" stroke:none;fill-rule:nonzero;fill:rgb(100%,100%,100%);fill-opacity:1;" d="M 9.5 11 L 11.5 11 L 11.5 13 L 9.5 13 Z M 9.5 11 "/>
<path style=" stroke:none;fill-rule:nonzero;fill:rgb(100%,100%,100%);fill-opacity:1;" d="M 3.5 14 L 5.5 14 L 5.5 16 L 3.5 16 Z M 3.5 14 "/>
<path style=" stroke:none;fill-rule:nonzero;fill:rgb(100%,100%,100%);fill-opacity:1;" d="M 6.5 14 L 8.5 14 L 8.5 16 L 6.5 16 Z M 6.5 14 "/>
<path style=" stroke:none;fill-rule:nonzero;fill:rgb(100%,100%,100%);fill-opacity:1;" d="M 9.5 14 L 11.5 14 L 11.5 16 L 9.5 16 Z M 9.5 14 "/>
<path style=" stroke:none;fill-rule:nonzero;fill:rgb(100%,100%,100%);fill-opacity:1;" d="M 12.5 11 L 14.5 11 L 14.5 16 L 12.5 16 Z M 12.5 11 "/>
</g>
</svg>
