<?xml version="1.0" encoding="UTF-8"?>
<svg xmlns="http://www.w3.org/2000/svg" xmlns:xlink="http://www.w3.org/1999/xlink" width="18px" height="18px" viewBox="0 0 18 18" version="1.1">
<g id="surface1">
<path style=" stroke:none;fill-rule:nonzero;fill:rgb(10.196078%,59.215686%,94.509804%);fill-opacity:1;" d="M 8.960938 4.242188 C 8.960938 2.503906 7.5 1.089844 5.703125 1.089844 C 3.902344 1.089844 2.445312 2.503906 2.445312 4.242188 C 2.445312 5.984375 3.902344 7.394531 5.703125 7.394531 C 7.5 7.394531 8.960938 5.984375 8.960938 4.242188 Z M 8.960938 4.242188 "/>
<path style=" stroke:none;fill-rule:nonzero;fill:rgb(10.196078%,59.215686%,94.509804%);fill-opacity:1;" d="M 0 12.914062 C 0.00390625 13.125 0.0898438 13.328125 0.242188 13.476562 C 0.398438 13.625 0.601562 13.703125 0.816406 13.699219 L 10.589844 13.699219 C 10.804688 13.703125 11.007812 13.625 11.160156 13.476562 C 11.3125 13.328125 11.402344 13.125 11.40625 12.914062 C 11.347656 9.816406 8.796875 7.347656 5.703125 7.394531 C 2.605469 7.351562 0.0546875 9.816406 0 12.914062 Z M 0 12.914062 "/>
<path style="fill-rule:nonzero;fill:rgb(10.196078%,59.215686%,94.509804%);fill-opacity:1;stroke-width:1;stroke-linecap:butt;stroke-linejoin:miter;stroke:rgb(100%,100%,100%);stroke-opacity:1;stroke-miterlimit:10;" d="M 0.000851563 5.99388 C -0.0134714 6.452214 0.348182 6.835352 0.810096 6.849674 L 10.517453 6.849674 C 10.979367 6.835352 11.341021 6.452214 11.326698 5.99388 C 11.412635 2.778385 8.88106 0.0964193 5.665565 -0.000260417 C 2.44649 0.0964193 -0.0850859 2.778385 0.000851563 5.99388 Z M 0.000851563 5.99388 " transform="matrix(1.090909,0,0,1.090909,5.096727,8.890909)"/>
<path style="fill-rule:nonzero;fill:rgb(10.196078%,59.215686%,94.509804%);fill-opacity:1;stroke-width:0.5;stroke-linecap:butt;stroke-linejoin:miter;stroke:rgb(100%,100%,100%);stroke-opacity:1;stroke-miterlimit:10;" d="M 5.97337 2.888948 C 5.97337 1.295523 4.637758 -0.000700521 2.987042 -0.000700521 C 1.336326 -0.000700521 0.000713542 1.295523 0.000713542 2.888948 C 0.000713542 4.485953 1.336326 5.778596 2.987042 5.778596 C 4.637758 5.778596 5.97337 4.485953 5.97337 2.888948 Z M 5.97337 2.888948 " transform="matrix(1.090909,0,0,1.090909,7.678909,3.426545)"/>
</g>
</svg>
