<?xml version="1.0" encoding="UTF-8"?>
<svg xmlns="http://www.w3.org/2000/svg" xmlns:xlink="http://www.w3.org/1999/xlink" width="18px" height="18px" viewBox="0 0 18 18" version="1.1">
<g id="surface1">
<path style=" stroke:none;fill-rule:nonzero;fill:rgb(10.196078%,59.215686%,94.509804%);fill-opacity:1;" d="M 18 5.417969 L 18 4.46875 C 18 3.382812 17.117188 2.5 16.03125 2.5 L 1.96875 2.5 C 0.882812 2.5 0 3.382812 0 4.46875 L 0 5.417969 C 0 5.515625 0.078125 5.59375 0.175781 5.59375 L 17.824219 5.59375 C 17.921875 5.59375 18 5.515625 18 5.417969 Z M 0 6.894531 L 0 12.90625 C 0 13.992188 0.882812 14.875 1.96875 14.875 L 16.03125 14.875 C 17.117188 14.875 18 13.992188 18 12.90625 L 18 6.894531 C 18 6.796875 17.921875 6.71875 17.824219 6.71875 L 0.175781 6.71875 C 0.078125 6.71875 0 6.796875 0 6.894531 Z M 4.5 11.5 C 4.5 11.8125 4.25 12.0625 3.9375 12.0625 L 3.375 12.0625 C 3.0625 12.0625 2.8125 11.8125 2.8125 11.5 L 2.8125 10.9375 C 2.8125 10.625 3.0625 10.375 3.375 10.375 L 3.9375 10.375 C 4.25 10.375 4.5 10.625 4.5 10.9375 Z M 4.5 11.5 "/>
</g>
</svg>
