<?xml version="1.0" encoding="UTF-8"?>
<svg xmlns="http://www.w3.org/2000/svg" xmlns:xlink="http://www.w3.org/1999/xlink" width="18px" height="18px" viewBox="0 0 18 18" version="1.1">
<g id="surface1">
<path style=" stroke:none;fill-rule:nonzero;fill:rgb(10.196078%,59.215686%,94.509804%);fill-opacity:1;" d="M 14.019531 0.507812 L 8.5 0.507812 C 8.152344 0.507812 7.816406 0.648438 7.570312 0.894531 L 0.386719 8.078125 C -0.128906 8.59375 -0.128906 9.425781 0.386719 9.941406 L 5.90625 15.460938 C 6.417969 15.976562 7.253906 15.976562 7.769531 15.460938 L 14.953125 8.277344 C 15.199219 8.03125 15.339844 7.695312 15.339844 7.34375 L 15.339844 1.828125 C 15.339844 1.097656 14.75 0.507812 14.019531 0.507812 Z M 11.714844 5.121094 C 11.167969 5.121094 10.726562 4.679688 10.726562 4.132812 C 10.726562 3.589844 11.167969 3.144531 11.714844 3.144531 C 12.257812 3.144531 12.703125 3.589844 12.703125 4.132812 C 12.703125 4.679688 12.257812 5.121094 11.714844 5.121094 Z M 11.714844 5.121094 "/>
<path style=" stroke:none;fill-rule:nonzero;fill:rgb(10.196078%,59.215686%,94.509804%);fill-opacity:1;" d="M 16.65625 1.828125 L 16.65625 7.960938 C 16.65625 8.265625 16.535156 8.558594 16.320312 8.773438 L 9.019531 16.074219 L 9.132812 16.183594 C 9.648438 16.699219 10.480469 16.699219 10.996094 16.183594 L 17.585938 9.59375 C 17.835938 9.347656 17.972656 9.011719 17.972656 8.664062 L 17.972656 3.144531 C 17.972656 2.417969 17.382812 1.828125 16.65625 1.828125 Z M 16.65625 1.828125 "/>
</g>
</svg>
