<?xml version="1.0" encoding="UTF-8"?>
<svg xmlns="http://www.w3.org/2000/svg" xmlns:xlink="http://www.w3.org/1999/xlink" width="18px" height="18px" viewBox="0 0 18 18" version="1.1">
<g id="surface1">
<path style=" stroke:none;fill-rule:nonzero;fill:rgb(10.196078%,59.215686%,94.509804%);fill-opacity:1;" d="M 4.6875 13.640625 C 3.488281 13.640625 2.417969 12.875 2.03125 11.730469 L 2.003906 11.644531 C 1.914062 11.339844 1.875 11.085938 1.875 10.828125 L 1.875 5.714844 L 0.0546875 11.789062 C -0.179688 12.683594 0.355469 13.609375 1.25 13.855469 L 12.847656 16.960938 C 12.992188 17 13.136719 17.015625 13.277344 17.015625 C 14.023438 17.015625 14.707031 16.523438 14.898438 15.792969 L 15.574219 13.640625 Z M 6.75 5.765625 C 7.578125 5.765625 8.25 5.09375 8.25 4.265625 C 8.25 3.441406 7.578125 2.765625 6.75 2.765625 C 5.921875 2.765625 5.25 3.441406 5.25 4.265625 C 5.25 5.09375 5.921875 5.765625 6.75 5.765625 Z M 6.75 5.765625 "/>
<path style=" stroke:none;fill-rule:nonzero;fill:rgb(10.196078%,59.215686%,94.509804%);fill-opacity:1;" d="M 16.125 0.515625 L 4.875 0.515625 C 3.839844 0.515625 3 1.359375 3 2.390625 L 3 10.640625 C 3 11.675781 3.839844 12.515625 4.875 12.515625 L 16.125 12.515625 C 17.15625 12.515625 18 11.675781 18 10.640625 L 18 2.390625 C 18 1.359375 17.15625 0.515625 16.125 0.515625 Z M 4.875 2.015625 L 16.125 2.015625 C 16.332031 2.015625 16.5 2.183594 16.5 2.390625 L 16.5 7.714844 L 14.128906 4.953125 C 13.878906 4.65625 13.515625 4.5 13.125 4.492188 C 12.734375 4.492188 12.371094 4.664062 12.121094 4.964844 L 9.335938 8.308594 L 8.429688 7.402344 C 7.917969 6.890625 7.082031 6.890625 6.570312 7.402344 L 4.5 9.472656 L 4.5 2.390625 C 4.5 2.183594 4.667969 2.015625 4.875 2.015625 Z M 4.875 2.015625 "/>
</g>
</svg>
