<?xml version="1.0" encoding="UTF-8"?>
<svg width="18px" height="18px" viewBox="0 0 18 18" version="1.1" xmlns="http://www.w3.org/2000/svg" xmlns:xlink="http://www.w3.org/1999/xlink">
    <!-- Generator: Sketch 54.1 (76490) - https://sketchapp.com -->
    <title>about-project-icon</title>
    <desc>Created with Sketch.</desc>
    <g id="Page-1" stroke="none" stroke-width="1" fill="none" fill-rule="evenodd">
        <g id="step-2---Brief" transform="translate(-128.000000, -319.000000)" fill="#C4C4C4" fill-rule="nonzero">
            <g id="form" transform="translate(52.000000, 255.000000)">
                <g id="update-1" transform="translate(63.000000, 0.000000)">
                    <g id="about-project-icon" transform="translate(13.000000, 64.000000)">
                        <path d="M9.7725,1.4025 L1.53,0.15 C1.1475,0.09 0.7575,0.195 0.465,0.4425 C0.1725,0.6975 0,1.065 0,1.4475 L0,17.25 C0,17.6625 0.3375,18 0.75,18 L3.1875,18 L3.1875,14.0625 C3.1875,13.335 3.7725,12.75 4.5,12.75 L6.375,12.75 C7.1025,12.75 7.6875,13.335 7.6875,14.0625 L7.6875,18 L10.875,18 L10.875,2.7 C10.875,2.055 10.41,1.5075 9.7725,1.4025 Z M4.125,11.0625 L3,11.0625 C2.6895,11.0625 2.4375,10.8105 2.4375,10.5 C2.4375,10.1895 2.6895,9.9375 3,9.9375 L4.125,9.9375 C4.4355,9.9375 4.6875,10.1895 4.6875,10.5 C4.6875,10.8105 4.4355,11.0625 4.125,11.0625 Z M4.125,8.8125 L3,8.8125 C2.6895,8.8125 2.4375,8.5605 2.4375,8.25 C2.4375,7.9395 2.6895,7.6875 3,7.6875 L4.125,7.6875 C4.4355,7.6875 4.6875,7.9395 4.6875,8.25 C4.6875,8.5605 4.4355,8.8125 4.125,8.8125 Z M4.125,6.5625 L3,6.5625 C2.6895,6.5625 2.4375,6.3105 2.4375,6 C2.4375,5.6895 2.6895,5.4375 3,5.4375 L4.125,5.4375 C4.4355,5.4375 4.6875,5.6895 4.6875,6 C4.6875,6.3105 4.4355,6.5625 4.125,6.5625 Z M4.125,4.3125 L3,4.3125 C2.6895,4.3125 2.4375,4.0605 2.4375,3.75 C2.4375,3.4395 2.6895,3.1875 3,3.1875 L4.125,3.1875 C4.4355,3.1875 4.6875,3.4395 4.6875,3.75 C4.6875,4.0605 4.4355,4.3125 4.125,4.3125 Z M7.875,11.0625 L6.75,11.0625 C6.4395,11.0625 6.1875,10.8105 6.1875,10.5 C6.1875,10.1895 6.4395,9.9375 6.75,9.9375 L7.875,9.9375 C8.1855,9.9375 8.4375,10.1895 8.4375,10.5 C8.4375,10.8105 8.1855,11.0625 7.875,11.0625 Z M7.875,8.8125 L6.75,8.8125 C6.4395,8.8125 6.1875,8.5605 6.1875,8.25 C6.1875,7.9395 6.4395,7.6875 6.75,7.6875 L7.875,7.6875 C8.1855,7.6875 8.4375,7.9395 8.4375,8.25 C8.4375,8.5605 8.1855,8.8125 7.875,8.8125 Z M7.875,6.5625 L6.75,6.5625 C6.4395,6.5625 6.1875,6.3105 6.1875,6 C6.1875,5.6895 6.4395,5.4375 6.75,5.4375 L7.875,5.4375 C8.1855,5.4375 8.4375,5.6895 8.4375,6 C8.4375,6.3105 8.1855,6.5625 7.875,6.5625 Z M7.875,4.3125 L6.75,4.3125 C6.4395,4.3125 6.1875,4.0605 6.1875,3.75 C6.1875,3.4395 6.4395,3.1875 6.75,3.1875 L7.875,3.1875 C8.1855,3.1875 8.4375,3.4395 8.4375,3.75 C8.4375,4.0605 8.1855,4.3125 7.875,4.3125 Z" id="Shape"></path>
                        <path d="M16.965,8.1315 L11.625,7.01325 L11.625,18 L16.6875,18 C17.41125,18 18,17.41125 18,16.6875 L18,9.414 C18,8.7945 17.57775,8.26725 16.965,8.1315 Z M15.1875,15.75 L14.0625,15.75 C13.752,15.75 13.5,15.498 13.5,15.1875 C13.5,14.877 13.752,14.625 14.0625,14.625 L15.1875,14.625 C15.498,14.625 15.75,14.877 15.75,15.1875 C15.75,15.498 15.498,15.75 15.1875,15.75 Z M15.1875,13.5 L14.0625,13.5 C13.752,13.5 13.5,13.248 13.5,12.9375 C13.5,12.627 13.752,12.375 14.0625,12.375 L15.1875,12.375 C15.498,12.375 15.75,12.627 15.75,12.9375 C15.75,13.248 15.498,13.5 15.1875,13.5 Z M15.1875,11.25 L14.0625,11.25 C13.752,11.25 13.5,10.998 13.5,10.6875 C13.5,10.377 13.752,10.125 14.0625,10.125 L15.1875,10.125 C15.498,10.125 15.75,10.377 15.75,10.6875 C15.75,10.998 15.498,11.25 15.1875,11.25 Z" id="Shape"></path>
                    </g>
                </g>
            </g>
        </g>
    </g>
</svg>