<?xml version="1.0" encoding="UTF-8"?>
<svg width="14px" height="18px" viewBox="0 0 14 18" version="1.1" xmlns="http://www.w3.org/2000/svg" xmlns:xlink="http://www.w3.org/1999/xlink">
    <!-- Generator: Sketch 54.1 (76490) - https://sketchapp.com -->
    <title>booking-info-icon</title>
    <desc>Created with Sketch.</desc>
    <g id="Page-1" stroke="none" stroke-width="1" fill="none" fill-rule="evenodd">
        <g id="step-2---Brief" transform="translate(-129.000000, -415.000000)" fill="#B2B2B2" fill-rule="nonzero">
            <g id="form" transform="translate(52.000000, 255.000000)">
                <g id="update-1" transform="translate(63.000000, 0.000000)">
                    <g id="booking-info-icon" transform="translate(14.000000, 160.000000)">
                        <path d="M9.69411026,4.08173064 L12.9666718,4.08173064 L9.18389393,0.298952755 L9.18389393,3.57151431 C9.18389393,3.85301766 9.41260691,4.08173064 9.69411026,4.08173064 Z" id="Path"></path>
                        <path d="M1.53064899,17.4153841 L11.7349756,17.4153841 C12.5790094,17.4153841 13.2656246,16.7287689 13.2656246,15.8847351 L13.2656246,5.1021633 L9.69411026,5.1021633 C8.8500764,5.1021633 8.16346127,4.41554817 8.16346127,3.57151431 L8.16346127,0 L1.53064899,0 C0.686615122,0 0,0.686615122 0,1.53064899 L0,15.8847351 C0,16.7287689 0.686615122,17.4153841 1.53064899,17.4153841 Z M4.59194697,8.1974757 L9.69411026,8.1974757 C9.97612384,8.1974757 10.2043266,8.42567845 10.2043266,8.70769203 C10.2043266,8.9897056 9.97612384,9.21790836 9.69411026,9.21790836 L4.59194697,9.21790836 C4.30993339,9.21790836 4.08173064,8.9897056 4.08173064,8.70769203 C4.08173064,8.42567845 4.30993339,8.1974757 4.59194697,8.1974757 Z M4.59194697,10.238341 L9.69411026,10.238341 C9.97612384,10.238341 10.2043266,10.4665438 10.2043266,10.7485573 C10.2043266,11.0305709 9.97612384,11.2587737 9.69411026,11.2587737 L4.59194697,11.2587737 C4.30993339,11.2587737 4.08173064,11.0305709 4.08173064,10.7485573 C4.08173064,10.4665438 4.30993339,10.238341 4.59194697,10.238341 Z M4.59194697,12.2792063 L9.69411026,12.2792063 C9.97612384,12.2792063 10.2043266,12.5074091 10.2043266,12.7894227 C10.2043266,13.0714362 9.97612384,13.299639 9.69411026,13.299639 L4.59194697,13.299639 C4.30993339,13.299639 4.08173064,13.0714362 4.08173064,12.7894227 C4.08173064,12.5074091 4.30993339,12.2792063 4.59194697,12.2792063 Z M2.55108165,8.1974757 C2.83285712,8.1974757 3.06129798,8.42591655 3.06129798,8.70769203 C3.06129798,8.9894675 2.83285712,9.21790836 2.55108165,9.21790836 C2.26930618,9.21790836 2.04086532,8.9894675 2.04086532,8.70769203 C2.04086532,8.42591655 2.26930618,8.1974757 2.55108165,8.1974757 Z M2.55108165,10.238341 C2.83285712,10.238341 3.06129798,10.4667819 3.06129798,10.7485573 C3.06129798,11.0303328 2.83285712,11.2587737 2.55108165,11.2587737 C2.26930618,11.2587737 2.04086532,11.0303328 2.04086532,10.7485573 C2.04086532,10.4667819 2.26930618,10.238341 2.55108165,10.238341 Z M2.55108165,12.2792063 C2.83285712,12.2792063 3.06129798,12.5076472 3.06129798,12.7894227 C3.06129798,13.0711981 2.83285712,13.299639 2.55108165,13.299639 C2.26930618,13.299639 2.04086532,13.0711981 2.04086532,12.7894227 C2.04086532,12.5076472 2.26930618,12.2792063 2.55108165,12.2792063 Z" id="Shape"></path>
                    </g>
                </g>
            </g>
        </g>
    </g>
</svg>