<?xml version="1.0" encoding="UTF-8"?>
<svg width="18px" height="15px" viewBox="0 0 18 15" version="1.1" xmlns="http://www.w3.org/2000/svg" xmlns:xlink="http://www.w3.org/1999/xlink">
    <!-- Generator: Sketch 54.1 (76490) - https://sketchapp.com -->
    <title>plan-layout-icon</title>
    <desc>Created with Sketch.</desc>
    <g id="Page-1" stroke="none" stroke-width="1" fill="none" fill-rule="evenodd">
        <g id="step-2---Brief" transform="translate(-127.000000, -469.000000)" fill="#B2B2B2" fill-rule="nonzero">
            <g id="form" transform="translate(52.000000, 255.000000)">
                <g id="update-1" transform="translate(63.000000, 0.000000)">
                    <g id="plan-layout-icon" transform="translate(12.000000, 214.000000)">
                        <path d="M17.9649844,2.48484375 L17.9649844,13.5808242 C17.8946719,12.4726992 16.9514297,11.557582 15.8004141,11.5614492 L15.2329922,11.5614492 L15.2329922,0.03346875 C16.6991484,-0.081 17.9583047,0.995097656 17.9649844,2.48484375 Z" id="Path"></path>
                        <path d="M15.8004141,12.6358242 L14.1783047,12.6358242 C14.1791484,10.3053867 14.1797461,4.4229375 14.16825,2.16871875 L5.68434189e-14,2.17153125 L5.68434189e-14,14.8460977 L15.7954922,14.8460977 C17.2960313,14.7961406 17.2663945,12.6932695 15.8004141,12.6358242 Z M11.4257813,5.754375 L7.69921875,5.754375 L7.69921875,7.96921875 L9.140625,7.96921875 L9.140625,9.02390625 L4.78125,9.02390625 L4.78125,7.96921875 L6.64453125,7.96921875 L6.64453125,5.754375 L3.4453125,5.754375 L3.4453125,11.5903125 L5.484375,11.5903125 L5.484375,10.1840625 L6.5390625,10.1840625 L6.5390625,11.5903125 L10.3710938,11.5903125 L10.3710938,7.5121875 L11.4257813,7.5121875 L11.4257813,12.645 C9.17465625,12.645 4.59622266,12.645 2.390625,12.645 L2.390625,4.6996875 L11.4257813,4.6996875 L11.4257813,5.754375 Z" id="Shape"></path>
                    </g>
                </g>
            </g>
        </g>
    </g>
</svg>