<svg width="48" height="48" viewBox="0 0 48 48" fill="none" xmlns="http://www.w3.org/2000/svg">
<path d="M33 40.5H15C13.6739 40.5 12.4021 39.9732 11.4645 39.0355C10.5268 38.0979 10 36.8261 10 35.5V10.5C10 9.17392 10.5268 7.90215 11.4645 6.96447C12.4021 6.02679 13.6739 5.5 15 5.5H27.52C28.3134 5.49805 29.0993 5.65349 29.8323 5.95731C30.5652 6.26113 31.2306 6.7073 31.79 7.27L36.23 11.71C36.7951 12.2717 37.2427 12.9404 37.5466 13.6769C37.8505 14.4135 38.0046 15.2032 38 16V35.5C38 36.8261 37.4732 38.0979 36.5355 39.0355C35.5979 39.9732 34.3261 40.5 33 40.5Z" fill="#E1EAF6"/>
<path d="M33 42.5H15C13.6739 42.5 12.4021 41.9732 11.4645 41.0355C10.5268 40.0979 10 38.8261 10 37.5V12.5C10 11.1739 10.5268 9.90215 11.4645 8.96447C12.4021 8.02679 13.6739 7.5 15 7.5H27.52C28.3134 7.49805 29.0993 7.65349 29.8323 7.95731C30.5652 8.26113 31.2306 8.7073 31.79 9.27L36.23 13.71C36.7951 14.2717 37.2427 14.9404 37.5466 15.6769C37.8505 16.4135 38.0046 17.2032 38 18V37.5C38 38.8261 37.4732 40.0979 36.5355 41.0355C35.5979 41.9732 34.3261 42.5 33 42.5Z" fill="url(#paint0_linear_6_15)"/>
<path d="M26.42 20C26.7843 20 27.1405 19.8918 27.4433 19.6892C27.7461 19.4866 27.9819 19.1986 28.1209 18.8618C28.2598 18.525 28.2957 18.1545 28.2239 17.7973C28.1521 17.4401 27.9758 17.1123 27.7175 16.8554C27.4592 16.5985 27.1304 16.424 26.7728 16.3541C26.4152 16.2843 26.0449 16.3221 25.7089 16.4629C25.3729 16.6037 25.0862 16.8411 24.8852 17.145C24.6842 17.4489 24.578 17.8057 24.58 18.17C24.58 18.4112 24.6277 18.6499 24.7202 18.8726C24.8128 19.0953 24.9485 19.2975 25.1195 19.4676C25.2905 19.6376 25.4934 19.7722 25.7166 19.8636C25.9398 19.955 26.1788 20.0013 26.42 20ZM32.72 29.67L28.32 23C28.2719 22.9257 28.206 22.8646 28.1283 22.8223C28.0506 22.78 27.9635 22.7579 27.875 22.7579C27.7865 22.7579 27.6994 22.78 27.6217 22.8223C27.544 22.8646 27.4781 22.9257 27.43 23L25.5 26L21.81 20.43C21.7076 20.2774 21.5692 20.1523 21.407 20.0658C21.2448 19.9793 21.0638 19.9341 20.88 19.9341C20.6962 19.9341 20.5152 19.9793 20.353 20.0658C20.1908 20.1523 20.0524 20.2774 19.95 20.43L14.38 28.82C14.2671 28.9877 14.2021 29.183 14.192 29.3849C14.182 29.5868 14.2273 29.7876 14.323 29.9656C14.4187 30.1437 14.5612 30.2922 14.7352 30.3952C14.9091 30.4982 15.1079 30.5517 15.31 30.55H32.31C32.4112 30.5482 32.5099 30.518 32.5947 30.4629C32.6796 30.4078 32.7473 30.3299 32.79 30.2381C32.8328 30.1464 32.8489 30.0445 32.8365 29.944C32.8241 29.8436 32.7837 29.7486 32.72 29.67Z" fill="#EFF4F9"/>
<path d="M26.42 19.17C26.7839 19.17 27.1397 19.0621 27.4422 18.8599C27.7448 18.6577 27.9807 18.3704 28.1199 18.0341C28.2592 17.6979 28.2956 17.328 28.2246 16.971C28.1536 16.6141 27.9784 16.2863 27.7211 16.0289C27.4637 15.7716 27.1359 15.5964 26.779 15.5254C26.422 15.4544 26.0521 15.4908 25.7159 15.6301C25.3796 15.7693 25.0923 16.0052 24.8901 16.3078C24.6879 16.6103 24.58 16.9661 24.58 17.33C24.5787 17.572 24.6254 17.8119 24.7174 18.0357C24.8094 18.2595 24.9448 18.4629 25.116 18.634C25.2871 18.8052 25.4905 18.9406 25.7143 19.0326C25.9381 19.1246 26.178 19.1713 26.42 19.17ZM32.72 28.5L28.32 21.87C28.2719 21.7957 28.206 21.7346 28.1283 21.6923C28.0506 21.65 27.9635 21.6279 27.875 21.6279C27.7865 21.6279 27.6994 21.65 27.6217 21.6923C27.544 21.7346 27.4781 21.7957 27.43 21.87L25.5 24.78L21.81 19.21C21.7076 19.0574 21.5692 18.9323 21.407 18.8458C21.2448 18.7593 21.0638 18.7141 20.88 18.7141C20.6962 18.7141 20.5152 18.7593 20.353 18.8458C20.1908 18.9323 20.0524 19.0574 19.95 19.21L14.38 27.6C14.2671 27.7677 14.2021 27.963 14.192 28.1649C14.182 28.3668 14.2273 28.5676 14.323 28.7456C14.4187 28.9237 14.5612 29.0722 14.7352 29.1752C14.9091 29.2782 15.1079 29.3317 15.31 29.33H32.31C32.4029 29.3224 32.4922 29.2908 32.5693 29.2384C32.6463 29.186 32.7085 29.1145 32.7498 29.031C32.7911 28.9474 32.81 28.8546 32.8048 28.7616C32.7996 28.6685 32.7704 28.5784 32.72 28.5Z" fill="#A7C1DB"/>
<path d="M40.09 31.34H25.98C24.9251 31.34 24.07 32.1951 24.07 33.25V38.2C24.07 39.2549 24.9251 40.11 25.98 40.11H40.09C41.1449 40.11 42 39.2549 42 38.2V33.25C42 32.1951 41.1449 31.34 40.09 31.34Z" fill="#B050DD"/>
<path d="M36 16H30.83C30.212 16 29.6194 15.7545 29.1824 15.3176C28.7455 14.8806 28.5 14.288 28.5 13.67V9.5C28.5 9.36739 28.5527 9.24021 28.6464 9.14645C28.7402 9.05268 28.8674 9 29 9C29.1326 9 29.2598 9.05268 29.3536 9.14645C29.4473 9.24021 29.5 9.36739 29.5 9.5V13.67C29.5 14.0227 29.6401 14.361 29.8895 14.6105C30.139 14.8599 30.4773 15 30.83 15H36C36.1326 15 36.2598 15.0527 36.3536 15.1464C36.4473 15.2402 36.5 15.3674 36.5 15.5C36.5 15.6326 36.4473 15.7598 36.3536 15.8536C36.2598 15.9473 36.1326 16 36 16Z" fill="#A7C1DB"/>
<path d="M28.2924 36.2015H27.4324V37.5015C27.4453 37.6562 27.3988 37.8099 27.3024 37.9315C27.2599 37.9762 27.2087 38.0117 27.1519 38.0358C27.0952 38.0599 27.034 38.072 26.9724 38.0715C26.9091 38.0728 26.8463 38.0611 26.7878 38.037C26.7293 38.0129 26.6764 37.977 26.6324 37.9315C26.5423 37.8105 26.4964 37.6623 26.5024 37.5115V33.9715C26.4951 33.8918 26.5046 33.8113 26.5305 33.7355C26.5563 33.6597 26.5979 33.5902 26.6524 33.5315C26.7788 33.437 26.9349 33.3908 27.0924 33.4015H28.2924C28.5646 33.3949 28.8367 33.4217 29.1024 33.4815C29.2818 33.5336 29.4486 33.6221 29.5924 33.7415C29.7287 33.8659 29.8347 34.0198 29.9024 34.1915C29.9771 34.3791 30.0145 34.5796 30.0124 34.7815C30.0251 34.9801 29.992 35.1789 29.9157 35.3627C29.8394 35.5465 29.722 35.7103 29.5724 35.8415C29.2014 36.1085 28.7481 36.236 28.2924 36.2015ZM28.0624 34.1015H27.4324V35.5015H28.0624C28.2483 35.5076 28.4339 35.4839 28.6124 35.4315C28.7649 35.4084 28.9037 35.3301 29.0024 35.2115C29.0789 35.0888 29.1171 34.9461 29.1124 34.8015C29.1194 34.6178 29.0548 34.4386 28.9324 34.3015C28.6789 34.1254 28.3673 34.0538 28.0624 34.1015Z" fill="white"/>
<path d="M39.5 36.22V37.1C39.5131 37.1929 39.5131 37.2871 39.5 37.38C39.4771 37.4527 39.4358 37.5181 39.38 37.57C39.3031 37.6279 39.223 37.6813 39.14 37.73C38.8861 37.8686 38.6178 37.9793 38.34 38.06C38.0656 38.1301 37.7832 38.1637 37.5 38.16C37.1596 38.1702 36.8203 38.1159 36.5 38C36.2193 37.8983 35.9649 37.735 35.7555 37.5222C35.5462 37.3094 35.3871 37.0523 35.29 36.77C35.172 36.45 35.1144 36.111 35.12 35.77C35.1163 35.43 35.1704 35.0919 35.28 34.77C35.38 34.4922 35.5418 34.2408 35.7531 34.0347C35.9645 33.8285 36.2198 33.6731 36.5 33.58C36.8207 33.4648 37.1593 33.4073 37.5 33.41C37.7789 33.4035 38.0568 33.4475 38.32 33.54C38.5319 33.6041 38.729 33.7095 38.9 33.85C39.0374 33.9581 39.1499 34.0946 39.23 34.25C39.3014 34.3608 39.3428 34.4883 39.35 34.62C39.3495 34.6762 39.3377 34.7316 39.3154 34.7832C39.2931 34.8347 39.2606 34.8812 39.22 34.92C39.1322 34.9987 39.0179 35.0416 38.9 35.04C38.8375 35.0542 38.7725 35.0542 38.71 35.04C38.6509 35.0042 38.5998 34.9565 38.56 34.9C38.4691 34.7601 38.3689 34.6264 38.26 34.5C38.1748 34.3948 38.0648 34.3124 37.94 34.26C37.7783 34.1941 37.6045 34.1635 37.43 34.17C37.2313 34.1679 37.0341 34.2053 36.85 34.28C36.6851 34.354 36.5383 34.4633 36.42 34.6C36.2976 34.756 36.2028 34.9319 36.14 35.12C36.078 35.3413 36.0477 35.5702 36.05 35.8C36.0285 36.2295 36.1556 36.6533 36.41 37C36.5348 37.1408 36.6892 37.2523 36.862 37.3266C37.0349 37.4009 37.222 37.4362 37.41 37.43C37.6159 37.4299 37.821 37.4031 38.02 37.35C38.2193 37.2853 38.4133 37.2051 38.6 37.11V36.36H37.9C37.7654 36.3662 37.6313 36.3387 37.51 36.28C37.4658 36.2536 37.4301 36.2151 37.407 36.169C37.384 36.1229 37.3746 36.0712 37.38 36.02C37.3793 35.9714 37.3887 35.9232 37.4076 35.8784C37.4266 35.8337 37.4546 35.7933 37.49 35.76C37.5746 35.6915 37.6812 35.6559 37.79 35.66H38.85C38.9593 35.6428 39.0707 35.6428 39.18 35.66C39.2235 35.6691 39.2646 35.6871 39.3008 35.7129C39.3369 35.7387 39.3673 35.7718 39.39 35.81C39.4754 35.9287 39.5145 36.0745 39.5 36.22Z" fill="white"/>
<rect x="31.2663" y="33.4" width="5.3" height="0.7" rx="0.35" transform="rotate(54 31.2663 33.4)" fill="white"/>
<rect x="30.7463" y="38" width="4.5" height="0.8" rx="0.4" transform="rotate(-90 30.7463 38)" fill="white"/>
<rect x="33.5463" y="38" width="4.5" height="0.8" rx="0.4" transform="rotate(-90 33.5463 38)" fill="white"/>
<rect x="14.5" y="16.5" width="2" height="2" fill="white"/>
<rect x="14" y="16" width="2" height="2" fill="#A7C1DB"/>
<rect x="19.5" y="16.5" width="2" height="2" fill="white"/>
<rect x="19" y="16" width="2" height="2" fill="#A7C1DB"/>
<rect x="31.5" y="17.5" width="2" height="2" fill="white"/>
<rect x="31" y="17" width="2" height="2" fill="#A7C1DB"/>
<rect x="31.5" y="21.5" width="2" height="2" fill="white"/>
<rect x="31" y="21" width="2" height="2" fill="#A7C1DB"/>
<rect x="32.5" y="25.5" width="1" height="2" fill="white"/>
<rect x="31" y="25" width="2" height="2" fill="#A7C1DB"/>
<rect x="14.5" y="21.5" width="2" height="2" fill="white"/>
<rect x="14" y="21" width="2" height="2" fill="#A7C1DB"/>
<rect x="24.5" y="21.5" width="2" height="2" fill="white"/>
<rect x="24" y="21" width="2" height="2" fill="#A7C1DB"/>
<defs>
<linearGradient id="paint0_linear_6_15" x1="24" y1="5.03" x2="24" y2="40.35" gradientUnits="userSpaceOnUse">
<stop stop-color="#F1F5F9"/>
<stop offset="1" stop-color="#D8E5F4"/>
</linearGradient>
</defs>
</svg>
