<svg xmlns="http://www.w3.org/2000/svg" width="32" height="32" viewBox="0 0 32 32">
  <g id="call-icon-green" transform="translate(0 0.5)">
    <circle id="Ellipse_6" data-name="Ellipse 6" cx="16" cy="16" r="16" transform="translate(0 -0.5)" fill="#00c45f"/>
    <path id="Path" d="M2.863.019c.887-.168,1.468.832,1.91,1.522A3.078,3.078,0,0,1,5.52,3.869c-.119.489-.561.756-.9,1.045s-.832.547-.954.985a2.491,2.491,0,0,0,.506,1.881,10.8,10.8,0,0,0,2.3,2.6,2.32,2.32,0,0,0,1.73.746c.951-.192,1.2-1.366,2.239-1.522a2.789,2.789,0,0,1,2.21,1.045c.536.464,1.4,1.057,1.343,1.851a1.6,1.6,0,0,1-.718,1.015,9.454,9.454,0,0,1-.924.805,4.772,4.772,0,0,1-2.807.717,5.942,5.942,0,0,1-2.686-.806,13.957,13.957,0,0,1-3.82-3.195A13.209,13.209,0,0,1,.357,6.706a5.5,5.5,0,0,1,.807-5.4A7.945,7.945,0,0,1,1.938.617,2.073,2.073,0,0,1,2.863.019Z" transform="translate(9.379 7.814)" fill="#fff"/>
  </g>
</svg>
