<svg width="48" height="48" viewBox="0 0 48 48" fill="none" xmlns="http://www.w3.org/2000/svg">
<path d="M33 40.5H15C13.6739 40.5 12.4021 39.9732 11.4645 39.0355C10.5268 38.0979 10 36.8261 10 35.5V10.5C10 9.17392 10.5268 7.90215 11.4645 6.96447C12.4021 6.02679 13.6739 5.5 15 5.5H27.52C28.3134 5.49805 29.0993 5.65349 29.8323 5.95731C30.5652 6.26113 31.2306 6.7073 31.79 7.27L36.23 11.71C36.7951 12.2717 37.2427 12.9404 37.5466 13.6769C37.8505 14.4135 38.0046 15.2032 38 16V35.5C38 36.8261 37.4732 38.0979 36.5355 39.0355C35.5979 39.9732 34.3261 40.5 33 40.5Z" fill="#E1EAF6"/>
<path d="M33 42.5H15C13.6739 42.5 12.4021 41.9732 11.4645 41.0355C10.5268 40.0979 10 38.8261 10 37.5V12.5C10 11.1739 10.5268 9.90215 11.4645 8.96447C12.4021 8.02679 13.6739 7.5 15 7.5H27.52C28.3134 7.49805 29.0993 7.65349 29.8323 7.95731C30.5652 8.26113 31.2306 8.7073 31.79 9.27L36.23 13.71C36.7951 14.2717 37.2427 14.9404 37.5466 15.6769C37.8505 16.4135 38.0046 17.2032 38 18V37.5C38 38.8261 37.4732 40.0979 36.5355 41.0355C35.5979 41.9732 34.3261 42.5 33 42.5Z" fill="url(#paint0_linear_6_3)"/>
<path d="M36 16H30.83C30.212 16 29.6194 15.7545 29.1824 15.3176C28.7455 14.8806 28.5 14.288 28.5 13.67V9.5C28.5 9.36739 28.5527 9.24021 28.6464 9.14645C28.7402 9.05268 28.8674 9 29 9C29.1326 9 29.2598 9.05268 29.3536 9.14645C29.4473 9.24021 29.5 9.36739 29.5 9.5V13.67C29.5 14.0227 29.6401 14.361 29.8895 14.6105C30.139 14.8599 30.4773 15 30.83 15H36C36.1326 15 36.2598 15.0527 36.3536 15.1464C36.4473 15.2402 36.5 15.3674 36.5 15.5C36.5 15.6326 36.4473 15.7598 36.3536 15.8536C36.2598 15.9473 36.1326 16 36 16Z" fill="#A7C1DB"/>
<path d="M39.09 31.34H24.98C23.9251 31.34 23.07 32.1951 23.07 33.25V38.2C23.07 39.2549 23.9251 40.11 24.98 40.11H39.09C40.1449 40.11 41 39.2549 41 38.2V33.25C41 32.1951 40.1449 31.34 39.09 31.34Z" fill="#EC5D24"/>
<path d="M27.87 36H27V37.3C27.0114 37.4514 26.9649 37.6015 26.87 37.72C26.8287 37.7662 26.7777 37.8028 26.7207 37.827C26.6636 37.8512 26.6019 37.8625 26.54 37.86C26.4764 37.864 26.4128 37.8534 26.3539 37.8292C26.295 37.8049 26.2423 37.7676 26.2 37.72C26.1068 37.6006 26.0606 37.4512 26.07 37.3V33.8C26.0628 33.7226 26.0715 33.6445 26.0955 33.5705C26.1196 33.4966 26.1586 33.4283 26.21 33.37C26.3372 33.2687 26.4978 33.2187 26.66 33.23H27.86C28.1329 33.2206 28.4058 33.2509 28.67 33.32C28.8527 33.3638 29.0213 33.4533 29.16 33.58C29.2961 33.7006 29.4023 33.8512 29.47 34.02C29.5404 34.2086 29.5743 34.4088 29.57 34.61C29.5847 34.8079 29.5535 35.0064 29.4789 35.1903C29.4043 35.3741 29.2884 35.5383 29.14 35.67C28.7693 35.9273 28.3191 36.0443 27.87 36ZM27.64 33.89H27V35.29H27.63C27.8152 35.2938 28 35.2736 28.18 35.23C28.3152 35.1921 28.4345 35.1114 28.52 35C28.5976 34.8777 28.636 34.7347 28.63 34.59C28.6343 34.5004 28.6206 34.4109 28.5897 34.3267C28.5588 34.2426 28.5113 34.1655 28.45 34.1C28.2101 33.9457 27.9217 33.8851 27.64 33.93V33.89Z" fill="white"/>
<path d="M32.3025 35.9717H31.4325V37.2717C31.4438 37.4231 31.3974 37.5732 31.3025 37.6917C31.2612 37.7379 31.2102 37.7744 31.1532 37.7986C31.0961 37.8228 31.0344 37.8341 30.9725 37.8317C30.9089 37.8356 30.8452 37.8251 30.7863 37.8008C30.7274 37.7766 30.6748 37.7393 30.6325 37.6917C30.5393 37.5722 30.493 37.4228 30.5025 37.2717V33.7717C30.4952 33.6942 30.5039 33.6161 30.528 33.5422C30.5521 33.4682 30.591 33.4 30.6425 33.3417C30.7697 33.2403 30.9302 33.1904 31.0925 33.2017H32.2925C32.5654 33.1923 32.8383 33.2226 33.1025 33.2917C33.2852 33.3355 33.4538 33.4249 33.5925 33.5517C33.7286 33.6722 33.8347 33.8229 33.9025 33.9917C33.9728 34.1802 34.0068 34.3804 34.0025 34.5817C34.0171 34.7795 33.986 34.9781 33.9114 35.1619C33.8368 35.3458 33.7208 35.5099 33.5725 35.6417C33.2018 35.899 32.7516 36.016 32.3025 35.9717ZM32.0725 33.8617H31.4325V35.2617H32.0625C32.2476 35.2654 32.4325 35.2453 32.6125 35.2017C32.7477 35.1637 32.867 35.083 32.9525 34.9717C33.0301 34.8494 33.0685 34.7063 33.0625 34.5617C33.0668 34.4721 33.0531 34.3826 33.0222 34.2984C32.9912 34.2142 32.9437 34.1371 32.8825 34.0717C32.6426 33.9173 32.3542 33.8568 32.0725 33.9017V33.8617Z" fill="white"/>
<rect x="34.7" y="33.3" width="3.6" height="0.7" rx="0.35" fill="white"/>
<rect x="36.1" y="38" width="4.5" height="0.8" rx="0.4" transform="rotate(-90 36.1 38)" fill="white"/>
<path d="M15 18H32" stroke="#A7C1DB" stroke-linecap="round"/>
<rect x="19" y="18" width="9" height="8" rx="0.5" fill="white" stroke="#A7C1DB"/>
<path d="M20 32.3L23 26.3" stroke="#A7C1DB" stroke-linecap="round"/>
<path d="M24.447 26.3001L26.7 31" stroke="#A7C1DB" stroke-linecap="square"/>
<path d="M22 24V20L25.5 22L22 24Z" fill="#A7C1DB"/>
<defs>
<linearGradient id="paint0_linear_6_3" x1="24" y1="5.03" x2="24" y2="40.35" gradientUnits="userSpaceOnUse">
<stop stop-color="#F1F5F9"/>
<stop offset="1" stop-color="#D8E5F4"/>
</linearGradient>
</defs>
</svg>
