<svg xmlns="http://www.w3.org/2000/svg" width="13.944" height="21" viewBox="0 0 13.944 21">
  <g id="project-broadcasts" transform="translate(-0.028)">
    <path id="Path" d="M12.47,3.232H10.7L9.926,0,4.452,3.232H.63a.616.616,0,1,0,0,1.231H12.47a.616.616,0,1,0,0-1.231Z" transform="translate(0.451 16.537)" fill="#7f7f7f"/>
    <path id="Path-2" data-name="Path" d="M.9,5.624a.639.639,0,0,0,.882.122A.606.606,0,0,0,1.9,4.884a3.085,3.085,0,0,1,.083-3.878A.606.606,0,0,0,1.9.139a.64.64,0,0,0-.886.086A4.294,4.294,0,0,0,.9,5.624Z" transform="translate(2.526 1.667)" fill="#7f7f7f"/>
    <path id="Path-3" data-name="Path" d="M2.051,9.188a.636.636,0,0,0,.4-.138.606.606,0,0,0,.092-.866,5.486,5.486,0,0,1,.106-7.167A.606.606,0,0,0,2.58.149a.64.64,0,0,0-.888.064,6.7,6.7,0,0,0-.13,8.748A.634.634,0,0,0,2.051,9.188Z" transform="translate(0.028 0)" fill="#7f7f7f"/>
    <path id="Path-4" data-name="Path" d="M.87,3A3.113,3.113,0,0,1,.225,4.884a.606.606,0,0,0,.125.862.639.639,0,0,0,.882-.122A4.334,4.334,0,0,0,2.13,3,4.322,4.322,0,0,0,1.117.225.64.64,0,0,0,.231.139a.606.606,0,0,0-.088.866A3.106,3.106,0,0,1,.87,3Z" transform="translate(9.344 1.667)" fill="#7f7f7f"/>
    <path id="Path-5" data-name="Path" d="M1.539,4.663A5.521,5.521,0,0,1,.259,8.185a.606.606,0,0,0,.091.866.64.64,0,0,0,.886-.089A6.738,6.738,0,0,0,2.8,4.663,6.726,6.726,0,0,0,1.107.214.64.64,0,0,0,.218.149a.606.606,0,0,0-.066.868A5.51,5.51,0,0,1,1.539,4.663Z" transform="translate(11.174 0)" fill="#7f7f7f"/>
    <path id="Path-6" data-name="Path" d="M0,5.5,5.9,2.011,1.319,0Z" transform="translate(2.908 14.013)" fill="#7f7f7f"/>
    <path id="Path-7" data-name="Path" d="M4.157,3.524,3.311,0,0,1.7Z" transform="translate(5.905 11.701)" fill="#7f7f7f"/>
    <path id="Path-8" data-name="Path" d="M1.975,3.861A1.955,1.955,0,0,0,3.95,1.93,1.955,1.955,0,0,0,1.975,0,1.955,1.955,0,0,0,0,1.93,1.955,1.955,0,0,0,1.975,3.861Z" transform="translate(5.024 2.733)" fill="#7f7f7f"/>
    <path id="Path-9" data-name="Path" d="M3.689,0A3.281,3.281,0,0,1,2.459.238,3.279,3.279,0,0,1,1.23,0L0,5.124,4.379,2.876Z" transform="translate(4.54 7.587)" fill="#7f7f7f"/>
  </g>
</svg>
