<?xml version="1.0" encoding="UTF-8"?>
<svg xmlns="http://www.w3.org/2000/svg" xmlns:xlink="http://www.w3.org/1999/xlink" width="17px" height="17px" viewBox="0 0 17 17" version="1.1">
<g id="surface1">
<path style=" stroke:none;fill-rule:nonzero;fill:rgb(7.843137%,56.862745%,87.843137%);fill-opacity:1;" d="M 9.230469 1.324219 L 1.445312 0.140625 C 1.082031 0.0859375 0.714844 0.183594 0.4375 0.417969 C 0.164062 0.660156 0 1.003906 0 1.367188 L 0 16.292969 C 0 16.679688 0.320312 17 0.707031 17 L 3.011719 17 L 3.011719 13.28125 C 3.011719 12.59375 3.5625 12.042969 4.25 12.042969 L 6.019531 12.042969 C 6.707031 12.042969 7.261719 12.59375 7.261719 13.28125 L 7.261719 17 L 10.269531 17 L 10.269531 2.550781 C 10.269531 1.941406 9.832031 1.421875 9.230469 1.324219 Z M 3.894531 10.449219 L 2.832031 10.449219 C 2.539062 10.449219 2.300781 10.210938 2.300781 9.917969 C 2.300781 9.625 2.539062 9.386719 2.832031 9.386719 L 3.894531 9.386719 C 4.1875 9.386719 4.425781 9.625 4.425781 9.917969 C 4.425781 10.210938 4.1875 10.449219 3.894531 10.449219 Z M 3.894531 8.324219 L 2.832031 8.324219 C 2.539062 8.324219 2.300781 8.085938 2.300781 7.792969 C 2.300781 7.5 2.539062 7.261719 2.832031 7.261719 L 3.894531 7.261719 C 4.1875 7.261719 4.425781 7.5 4.425781 7.792969 C 4.425781 8.085938 4.1875 8.324219 3.894531 8.324219 Z M 3.894531 6.199219 L 2.832031 6.199219 C 2.539062 6.199219 2.300781 5.960938 2.300781 5.667969 C 2.300781 5.375 2.539062 5.136719 2.832031 5.136719 L 3.894531 5.136719 C 4.1875 5.136719 4.425781 5.375 4.425781 5.667969 C 4.425781 5.960938 4.1875 6.199219 3.894531 6.199219 Z M 3.894531 4.074219 L 2.832031 4.074219 C 2.539062 4.074219 2.300781 3.835938 2.300781 3.542969 C 2.300781 3.25 2.539062 3.011719 2.832031 3.011719 L 3.894531 3.011719 C 4.1875 3.011719 4.425781 3.25 4.425781 3.542969 C 4.425781 3.835938 4.1875 4.074219 3.894531 4.074219 Z M 7.4375 10.449219 L 6.375 10.449219 C 6.082031 10.449219 5.84375 10.210938 5.84375 9.917969 C 5.84375 9.625 6.082031 9.386719 6.375 9.386719 L 7.4375 9.386719 C 7.730469 9.386719 7.96875 9.625 7.96875 9.917969 C 7.96875 10.210938 7.730469 10.449219 7.4375 10.449219 Z M 7.4375 8.324219 L 6.375 8.324219 C 6.082031 8.324219 5.84375 8.085938 5.84375 7.792969 C 5.84375 7.5 6.082031 7.261719 6.375 7.261719 L 7.4375 7.261719 C 7.730469 7.261719 7.96875 7.5 7.96875 7.792969 C 7.96875 8.085938 7.730469 8.324219 7.4375 8.324219 Z M 7.4375 6.199219 L 6.375 6.199219 C 6.082031 6.199219 5.84375 5.960938 5.84375 5.667969 C 5.84375 5.375 6.082031 5.136719 6.375 5.136719 L 7.4375 5.136719 C 7.730469 5.136719 7.96875 5.375 7.96875 5.667969 C 7.96875 5.960938 7.730469 6.199219 7.4375 6.199219 Z M 7.4375 4.074219 L 6.375 4.074219 C 6.082031 4.074219 5.84375 3.835938 5.84375 3.542969 C 5.84375 3.25 6.082031 3.011719 6.375 3.011719 L 7.4375 3.011719 C 7.730469 3.011719 7.96875 3.25 7.96875 3.542969 C 7.96875 3.835938 7.730469 4.074219 7.4375 4.074219 Z M 16.023438 7.679688 L 10.980469 6.625 L 10.980469 17 L 15.761719 17 C 16.445312 17 17 16.445312 17 15.761719 L 17 8.890625 C 17 8.304688 16.601562 7.808594 16.023438 7.679688 Z M 14.34375 14.875 L 13.28125 14.875 C 12.988281 14.875 12.75 14.636719 12.75 14.34375 C 12.75 14.050781 12.988281 13.8125 13.28125 13.8125 L 14.34375 13.8125 C 14.636719 13.8125 14.875 14.050781 14.875 14.34375 C 14.875 14.636719 14.636719 14.875 14.34375 14.875 Z M 14.34375 12.75 L 13.28125 12.75 C 12.988281 12.75 12.75 12.511719 12.75 12.21875 C 12.75 11.925781 12.988281 11.6875 13.28125 11.6875 L 14.34375 11.6875 C 14.636719 11.6875 14.875 11.925781 14.875 12.21875 C 14.875 12.511719 14.636719 12.75 14.34375 12.75 Z M 14.34375 10.625 L 13.28125 10.625 C 12.988281 10.625 12.75 10.386719 12.75 10.09375 C 12.75 9.800781 12.988281 9.5625 13.28125 9.5625 L 14.34375 9.5625 C 14.636719 9.5625 14.875 9.800781 14.875 10.09375 C 14.875 10.386719 14.636719 10.625 14.34375 10.625 Z M 14.34375 10.625 "/>
</g>
</svg>
