<?xml version="1.0" encoding="UTF-8"?>
<svg xmlns="http://www.w3.org/2000/svg" xmlns:xlink="http://www.w3.org/1999/xlink" width="18px" height="18px" viewBox="0 0 18 18" version="1.1">
<g id="surface1">
<path style=" stroke:none;fill-rule:nonzero;fill:rgb(10.196078%,59.215686%,94.509804%);fill-opacity:1;" d="M 11.695312 4.082031 L 14.964844 4.082031 L 11.183594 0.300781 L 11.183594 3.570312 C 11.183594 3.851562 11.414062 4.082031 11.695312 4.082031 Z M 11.695312 4.082031 "/>
<path style=" stroke:none;fill-rule:nonzero;fill:rgb(10.196078%,59.215686%,94.509804%);fill-opacity:1;" d="M 3.53125 17.414062 L 13.734375 17.414062 C 14.578125 17.414062 15.265625 16.730469 15.265625 15.882812 L 15.265625 5.101562 L 11.695312 5.101562 C 10.851562 5.101562 10.164062 4.414062 10.164062 3.570312 L 10.164062 0 L 3.53125 0 C 2.6875 0 2 0.6875 2 1.53125 L 2 15.882812 C 2 16.730469 2.6875 17.414062 3.53125 17.414062 Z M 6.59375 8.199219 L 11.695312 8.199219 C 11.976562 8.199219 12.203125 8.425781 12.203125 8.707031 C 12.203125 8.988281 11.976562 9.21875 11.695312 9.21875 L 6.59375 9.21875 C 6.308594 9.21875 6.082031 8.988281 6.082031 8.707031 C 6.082031 8.425781 6.308594 8.199219 6.59375 8.199219 Z M 6.59375 10.238281 L 11.695312 10.238281 C 11.976562 10.238281 12.203125 10.464844 12.203125 10.75 C 12.203125 11.03125 11.976562 11.257812 11.695312 11.257812 L 6.59375 11.257812 C 6.308594 11.257812 6.082031 11.03125 6.082031 10.75 C 6.082031 10.464844 6.308594 10.238281 6.59375 10.238281 Z M 6.59375 12.277344 L 11.695312 12.277344 C 11.976562 12.277344 12.203125 12.507812 12.203125 12.789062 C 12.203125 13.070312 11.976562 13.300781 11.695312 13.300781 L 6.59375 13.300781 C 6.308594 13.300781 6.082031 13.070312 6.082031 12.789062 C 6.082031 12.507812 6.308594 12.277344 6.59375 12.277344 Z M 4.550781 8.199219 C 4.832031 8.199219 5.0625 8.425781 5.0625 8.707031 C 5.0625 8.988281 4.832031 9.21875 4.550781 9.21875 C 4.269531 9.21875 4.039062 8.988281 4.039062 8.707031 C 4.039062 8.425781 4.269531 8.199219 4.550781 8.199219 Z M 4.550781 10.238281 C 4.832031 10.238281 5.0625 10.464844 5.0625 10.75 C 5.0625 11.03125 4.832031 11.257812 4.550781 11.257812 C 4.269531 11.257812 4.039062 11.03125 4.039062 10.75 C 4.039062 10.464844 4.269531 10.238281 4.550781 10.238281 Z M 4.550781 12.277344 C 4.832031 12.277344 5.0625 12.507812 5.0625 12.789062 C 5.0625 13.070312 4.832031 13.300781 4.550781 13.300781 C 4.269531 13.300781 4.039062 13.070312 4.039062 12.789062 C 4.039062 12.507812 4.269531 12.277344 4.550781 12.277344 Z M 4.550781 12.277344 "/>
</g>
</svg>
