<?xml version="1.0" encoding="UTF-8"?>
<svg width="25px" height="22px" viewBox="0 0 25 22" version="1.1" xmlns="http://www.w3.org/2000/svg" xmlns:xlink="http://www.w3.org/1999/xlink">
    <!-- Generator: Sketch 54.1 (76490) - https://sketchapp.com -->
    <title>photo</title>
    <desc>Created with Sketch.</desc>
    <g id="Page-1" stroke="none" stroke-width="1" fill="none" fill-rule="evenodd">
        <g id="step-2---Brief" transform="translate(-470.000000, -923.000000)">
            <g id="Group-5" transform="translate(335.000000, 671.000000)">
                <g id="Group-4" transform="translate(1.000000, 30.000000)">
                    <g id="Group-2" transform="translate(124.000000, 215.000000)">
                        <g id="photo" transform="translate(10.888889, 7.777778)">
                            <g id="Group" fill-rule="nonzero">
                                <path d="M2.67242845,0.0594771242 L16.1847072,0.0594771242 C17.6560442,0.0594771242 18.8571356,1.24901961 18.8571356,2.70620915 L18.8571356,16.4751634 C18.8571356,17.9323529 17.6560442,19.1218954 16.1847072,19.1218954 L2.67242845,19.1218954 C1.20109144,19.1218954 0,17.9323529 0,16.4751634 L0,2.67647059 C0,1.24901961 1.20109144,0.0594771242 2.67242845,0.0594771242 Z" id="Path" fill="#0C5DB0"></path>
                                <path d="M8.73794022,12.5199346 L4.77433847,8.59444444 L0,13.3228758 L0,14.3042484 L0,16.4454248 C0,17.9026144 1.20109144,19.0921569 2.67242845,19.0921569 L16.1847072,19.0921569 C17.6560442,19.0921569 18.8571356,17.9026144 18.8571356,16.4454248 L18.8571356,14.3042484 L18.8571356,11.3601307 L14.38307,6.89934641 L8.73794022,12.5199346 Z" id="Path" fill="#00C45F"></path>
                                <ellipse id="Oval" fill="#FFCC03" cx="8.61783108" cy="6.36405229" rx="1.68152802" ry="1.66535948"></ellipse>
                                <ellipse id="Oval" fill="#FFFFFF" cx="18.8571356" cy="15.9398693" rx="4.32392918" ry="4.28235294"></ellipse>
                            </g>
                            <circle id="Oval" fill="#EEEEEE" cx="18.6666667" cy="15.5555556" r="5.44444444"></circle>
                            <g id="Group" transform="translate(15.281046, 12.307190)" fill="#00C45F" fill-rule="nonzero">
                                <path d="M0.863562097,4.12717483 C0.441376183,4.12717483 0.0575708065,3.80574626 0.0575708065,3.37717483 C0.0575708065,2.9486034 0.402995645,2.62717483 0.863562097,2.62717483 L6.08331522,2.62717483 C6.54388167,2.62717483 6.88930651,2.9486034 6.88930651,3.37717483 C6.88930651,3.80574626 6.54388167,4.12717483 6.08331522,4.12717483 L0.863562097,4.12717483 Z" id="Path"></path>
                                <path d="M4.16744737,6.0911535 C4.16744737,6.5582068 3.8460188,6.90849678 3.41744737,6.90849678 C2.98887594,6.90849678 2.66744737,6.5582068 2.66744737,6.0911535 L2.66744737,0.836803835 C2.66744737,0.40867164 2.98887594,0.0194605543 3.41744737,0.0194605543 C3.81030451,0.0194605543 4.16744737,0.369750532 4.16744737,0.836803835 L4.16744737,6.0911535 Z" id="Path"></path>
                            </g>
                        </g>
                    </g>
                </g>
            </g>
        </g>
    </g>
</svg>