<?xml version="1.0" encoding="UTF-8"?>
<svg xmlns="http://www.w3.org/2000/svg" xmlns:xlink="http://www.w3.org/1999/xlink" width="18px" height="18px" viewBox="0 0 18 18" version="1.1">
<g id="surface1">
<path style=" stroke:none;fill-rule:nonzero;fill:rgb(10.196078%,59.215686%,94.509804%);fill-opacity:1;" d="M 6.890625 11.671875 C 6.890625 12.835938 5.945312 13.78125 4.78125 13.78125 C 3.617188 13.78125 2.671875 12.835938 2.671875 11.671875 C 2.671875 10.507812 3.617188 9.5625 4.78125 9.5625 C 5.945312 9.5625 6.890625 10.507812 6.890625 11.671875 Z M 6.890625 11.671875 "/>
<path style=" stroke:none;fill-rule:nonzero;fill:rgb(10.196078%,59.215686%,94.509804%);fill-opacity:1;" d="M 1.089844 17.472656 C 1.089844 17.765625 1.324219 18 1.617188 18 L 7.945312 18 C 8.238281 18 8.472656 17.765625 8.472656 17.472656 C 8.472656 15.4375 6.816406 13.78125 4.78125 13.78125 C 2.746094 13.78125 1.089844 15.4375 1.089844 17.472656 Z M 1.089844 17.472656 "/>
<path style=" stroke:none;fill-rule:nonzero;fill:rgb(10.196078%,59.215686%,94.509804%);fill-opacity:1;" d="M 15.328125 11.671875 C 15.328125 12.835938 14.382812 13.78125 13.21875 13.78125 C 12.054688 13.78125 11.109375 12.835938 11.109375 11.671875 C 11.109375 10.507812 12.054688 9.5625 13.21875 9.5625 C 14.382812 9.5625 15.328125 10.507812 15.328125 11.671875 Z M 15.328125 11.671875 "/>
<path style=" stroke:none;fill-rule:nonzero;fill:rgb(10.196078%,59.215686%,94.509804%);fill-opacity:1;" d="M 9.527344 17.472656 C 9.527344 17.765625 9.761719 18 10.054688 18 L 16.382812 18 C 16.675781 18 16.910156 17.765625 16.910156 17.472656 C 16.910156 15.4375 15.253906 13.78125 13.21875 13.78125 C 11.183594 13.78125 9.527344 15.4375 9.527344 17.472656 Z M 16.417969 0 L 1.582031 0 C 0.710938 0 0 0.710938 0 1.582031 L 0 5.800781 C 0 6.671875 0.710938 7.382812 1.582031 7.382812 L 3.472656 7.382812 L 4.375 8.28125 C 4.578125 8.488281 4.914062 8.488281 5.117188 8.28125 L 6.019531 7.382812 L 11.980469 7.382812 L 12.882812 8.28125 C 13.085938 8.488281 13.421875 8.488281 13.625 8.28125 L 14.527344 7.382812 L 16.417969 7.382812 C 17.289062 7.382812 18 6.671875 18 5.800781 L 18 1.582031 C 18 0.710938 17.289062 0 16.417969 0 Z M 6.855469 5.273438 L 2.636719 5.273438 C 2.34375 5.273438 2.109375 5.039062 2.109375 4.746094 C 2.109375 4.453125 2.34375 4.21875 2.636719 4.21875 L 6.855469 4.21875 C 7.148438 4.21875 7.382812 4.453125 7.382812 4.746094 C 7.382812 5.039062 7.148438 5.273438 6.855469 5.273438 Z M 6.855469 3.164062 L 2.636719 3.164062 C 2.34375 3.164062 2.109375 2.929688 2.109375 2.636719 C 2.109375 2.34375 2.34375 2.109375 2.636719 2.109375 L 6.855469 2.109375 C 7.148438 2.109375 7.382812 2.34375 7.382812 2.636719 C 7.382812 2.929688 7.148438 3.164062 6.855469 3.164062 Z M 15.363281 5.273438 L 11.144531 5.273438 C 10.851562 5.273438 10.617188 5.039062 10.617188 4.746094 C 10.617188 4.453125 10.851562 4.21875 11.144531 4.21875 L 15.363281 4.21875 C 15.65625 4.21875 15.890625 4.453125 15.890625 4.746094 C 15.890625 5.039062 15.65625 5.273438 15.363281 5.273438 Z M 15.363281 3.164062 L 11.144531 3.164062 C 10.851562 3.164062 10.617188 2.929688 10.617188 2.636719 C 10.617188 2.34375 10.851562 2.109375 11.144531 2.109375 L 15.363281 2.109375 C 15.65625 2.109375 15.890625 2.34375 15.890625 2.636719 C 15.890625 2.929688 15.65625 3.164062 15.363281 3.164062 Z M 15.363281 3.164062 "/>
</g>
</svg>
