<?xml version="1.0" encoding="UTF-8"?>
<svg xmlns="http://www.w3.org/2000/svg" xmlns:xlink="http://www.w3.org/1999/xlink" width="18px" height="18px" viewBox="0 0 18 18" version="1.1">
<g id="surface1">
<path style=" stroke:none;fill-rule:nonzero;fill:rgb(10.196078%,59.215686%,94.509804%);fill-opacity:1;" d="M 17.964844 3.984375 L 17.964844 15.082031 C 17.894531 13.972656 16.953125 13.058594 15.800781 13.0625 L 15.234375 13.0625 L 15.234375 1.535156 C 16.699219 1.417969 17.957031 2.496094 17.964844 3.984375 Z M 17.964844 3.984375 "/>
<path style=" stroke:none;fill-rule:nonzero;fill:rgb(10.196078%,59.215686%,94.509804%);fill-opacity:1;" d="M 15.800781 14.136719 L 14.179688 14.136719 C 14.179688 11.804688 14.179688 5.921875 14.167969 3.667969 L 0 3.671875 L 0 16.347656 L 15.796875 16.347656 C 17.296875 16.296875 17.265625 14.191406 15.800781 14.136719 Z M 11.425781 7.253906 L 7.699219 7.253906 L 7.699219 9.46875 L 9.140625 9.46875 L 9.140625 10.523438 L 4.78125 10.523438 L 4.78125 9.46875 L 6.644531 9.46875 L 6.644531 7.253906 L 3.445312 7.253906 L 3.445312 13.089844 L 5.484375 13.089844 L 5.484375 11.683594 L 6.539062 11.683594 L 6.539062 13.089844 L 10.371094 13.089844 L 10.371094 9.011719 L 11.425781 9.011719 L 11.425781 14.144531 C 9.175781 14.144531 4.597656 14.144531 2.390625 14.144531 L 2.390625 6.199219 L 11.425781 6.199219 Z M 11.425781 7.253906 "/>
</g>
</svg>
