<?xml version="1.0" encoding="UTF-8"?>
<svg xmlns="http://www.w3.org/2000/svg" xmlns:xlink="http://www.w3.org/1999/xlink" width="18px" height="18px" viewBox="0 0 18 18" version="1.1">
<g id="surface1">
<path style=" stroke:none;fill-rule:nonzero;fill:rgb(10.196078%,59.215686%,94.509804%);fill-opacity:1;" d="M 14.074219 16.945312 L 12.558594 16.945312 L 11.894531 14.175781 L 7.203125 16.945312 L 3.925781 16.945312 C 3.734375 16.9375 3.550781 17.035156 3.453125 17.203125 C 3.351562 17.367188 3.351562 17.574219 3.453125 17.742188 C 3.550781 17.910156 3.734375 18.007812 3.925781 18 L 14.074219 18 C 14.269531 18.007812 14.449219 17.910156 14.550781 17.742188 C 14.648438 17.574219 14.648438 17.367188 14.550781 17.203125 C 14.449219 17.035156 14.269531 16.9375 14.074219 16.945312 Z M 14.074219 16.945312 "/>
<path style=" stroke:none;fill-rule:nonzero;fill:rgb(10.196078%,59.215686%,94.509804%);fill-opacity:1;" d="M 5.9375 6.25 C 6.117188 6.484375 6.453125 6.53125 6.691406 6.355469 C 6.804688 6.269531 6.878906 6.144531 6.898438 6.007812 C 6.917969 5.867188 6.878906 5.726562 6.792969 5.613281 C 6.03125 4.628906 6.058594 3.242188 6.863281 2.292969 C 6.957031 2.183594 7 2.042969 6.988281 1.90625 C 6.972656 1.765625 6.902344 1.636719 6.792969 1.546875 C 6.5625 1.363281 6.226562 1.394531 6.035156 1.621094 C 4.914062 2.949219 4.875 4.875 5.9375 6.25 Z M 5.9375 6.25 "/>
<path style=" stroke:none;fill-rule:nonzero;fill:rgb(10.196078%,59.215686%,94.509804%);fill-opacity:1;" d="M 4.78125 7.875 C 4.90625 7.875 5.027344 7.835938 5.125 7.757812 C 5.234375 7.671875 5.308594 7.542969 5.320312 7.402344 C 5.335938 7.261719 5.292969 7.121094 5.203125 7.015625 C 3.707031 5.226562 3.746094 2.613281 5.292969 0.871094 C 5.386719 0.765625 5.433594 0.628906 5.421875 0.488281 C 5.410156 0.347656 5.34375 0.21875 5.234375 0.128906 C 5.007812 -0.0625 4.671875 -0.0390625 4.472656 0.183594 C 2.585938 2.308594 2.539062 5.5 4.363281 7.679688 C 4.464844 7.804688 4.621094 7.875 4.78125 7.875 Z M 4.78125 7.875 "/>
<path style=" stroke:none;fill-rule:nonzero;fill:rgb(10.196078%,59.215686%,94.509804%);fill-opacity:1;" d="M 11.753906 4 C 11.753906 4.585938 11.558594 5.152344 11.203125 5.613281 C 11.117188 5.726562 11.078125 5.867188 11.097656 6.007812 C 11.121094 6.148438 11.195312 6.273438 11.308594 6.355469 C 11.546875 6.53125 11.882812 6.484375 12.066406 6.25 C 12.5625 5.605469 12.832031 4.8125 12.835938 4 C 12.832031 3.128906 12.527344 2.289062 11.964844 1.621094 C 11.773438 1.394531 11.4375 1.363281 11.207031 1.546875 C 11.097656 1.636719 11.027344 1.761719 11.011719 1.902344 C 10.996094 2.042969 11.042969 2.183594 11.132812 2.289062 C 11.535156 2.769531 11.753906 3.375 11.753906 4 Z M 11.753906 4 "/>
<path style=" stroke:none;fill-rule:nonzero;fill:rgb(10.196078%,59.215686%,94.509804%);fill-opacity:1;" d="M 13.898438 3.996094 C 13.894531 5.101562 13.507812 6.167969 12.800781 7.015625 C 12.710938 7.125 12.667969 7.261719 12.679688 7.402344 C 12.695312 7.542969 12.765625 7.671875 12.878906 7.757812 C 13.109375 7.941406 13.445312 7.90625 13.636719 7.683594 C 14.5 6.648438 14.972656 5.34375 14.976562 3.996094 C 14.976562 2.589844 14.457031 1.234375 13.527344 0.183594 C 13.328125 -0.0390625 12.992188 -0.0625 12.765625 0.128906 C 12.65625 0.21875 12.589844 0.347656 12.578125 0.488281 C 12.566406 0.628906 12.613281 0.765625 12.707031 0.871094 C 13.472656 1.734375 13.894531 2.84375 13.898438 3.996094 Z M 13.898438 3.996094 "/>
<path style=" stroke:none;fill-rule:nonzero;fill:rgb(10.196078%,59.215686%,94.509804%);fill-opacity:1;" d="M 5.492188 16.726562 L 10.550781 13.734375 L 6.625 12.011719 Z M 5.492188 16.726562 "/>
<path style=" stroke:none;fill-rule:nonzero;fill:rgb(10.196078%,59.215686%,94.509804%);fill-opacity:1;" d="M 11.625 13.050781 L 10.898438 10.03125 L 8.0625 11.488281 Z M 11.625 13.050781 "/>
<path style=" stroke:none;fill-rule:nonzero;fill:rgb(10.196078%,59.215686%,94.509804%);fill-opacity:1;" d="M 9 5.652344 C 9.921875 5.660156 10.679688 4.921875 10.691406 3.996094 C 10.679688 3.074219 9.921875 2.332031 9 2.34375 C 8.074219 2.332031 7.316406 3.074219 7.304688 3.996094 C 7.316406 4.921875 8.074219 5.660156 9 5.652344 Z M 9 5.652344 "/>
<path style=" stroke:none;fill-rule:nonzero;fill:rgb(10.196078%,59.215686%,94.509804%);fill-opacity:1;" d="M 10.054688 6.503906 C 9.71875 6.636719 9.359375 6.707031 9 6.707031 C 8.636719 6.707031 8.28125 6.636719 7.945312 6.503906 L 6.890625 10.894531 L 10.644531 8.96875 Z M 10.054688 6.503906 "/>
</g>
</svg>
